# xmcd CD database file generated by Grip 3.2.0
# 
# Track frame offsets:
#       182
#       13200
#       25475
#       39625
#       51095
#       64347
#       76785
#       89225
#       102710
#       115085
#       127867
#       142412
#       157942
#       170747
#       184112
#       197362
#       212902
#       226505
#       242682
#       254385
#       266855
#       278290
#       293687
#       307315
#       320005
# 
# Disc length: 4455 seconds
# 
# Revision: 4
# Processed by: cddbd v1.5.2PL0 Copyright (c) Steve Scherf et al.
# Submitted via: Grip 3.2.0
# 
DISCID=74116519
DTITLE=Various Artist - Them Dirty Blues - Disc 2
DYEAR=1989
DGENRE=Blues
TTITLE0=Bo Carter - Ants in My Pants
TTITLE1=The Chicago Swans - Don't Tear My Clothes
TTITLE2=Lil Johnson - My Baby (Squeeze Me Again)
TTITLE3=Napoleon Fletcher and Roosevelt Sykes - She Showed It All
TTITLE4=Lil Johnson - Honey, You're So Good to Me
TTITLE5=The Dallas Jug Band - You Gotta Have That Thing
TTITLE6=Lil Johnson and Mr. Sheiks - If You Don't Give Me What I Want
TTITLE7=Bo Carter - Please Warm My Weiner
TTITLE8=Bea Foote - Try and Get It
TTITLE9=Johnny Temple - Grinding Mill
TTITLE10=Memphis Minnie - If You See My Rooster
TTITLE11=Lil Johnson - Take It Easy, Greasy
TTITLE12=Georgia White - Get 'em from the Peanut Man (Hot Nuts)
TTITLE13=Blind Willie McTell - Southern Can Mama
TTITLE14=Ethel Waters and James P. Johnson - My Handy Man
TTITLE15=The Chocolate Dandies - Six or Seven Times
TTITLE16=James "Stump" Johnson - The Duck's Yas-Yas-Yas
TTITLE17=Edith Wilson - My Handy Man Ain't Handy No More
TTITLE18=Oscar's Chicago Swingers - I Wonder Who's Boogiein' My Woogie Now
TTITLE19=Blind Boy Fuller - What's That Smells Like Fish?
TTITLE20=The Memphis Jug Band - Papa's Got Your Water On
TTITLE21=Hattie North and Roosevelt Sykes - Honey Dripper Blues
TTITLE22=Bo Carter - All Around Man
TTITLE23=Tampa Red and His Hokum Jug Band - I Wonder Where My Easy Rider's 
TTITLE23=Gone (feat. Frankie "Half-Pint" Jaxon)
TTITLE24=Lonnie Johnson - Uncle Ned, Don't Use Your Head
EXTD=
EXTT0=
EXTT1=
EXTT2=
EXTT3=
EXTT4=
EXTT5=
EXTT6=
EXTT7=
EXTT8=
EXTT9=
EXTT10=
EXTT11=
EXTT12=
EXTT13=
EXTT14=
EXTT15=
EXTT16=
EXTT17=
EXTT18=
EXTT19=
EXTT20=
EXTT21=
EXTT22=
EXTT23=
EXTT24=
PLAYORDER=
